<svg xmlns="http://www.w3.org/2000/svg" xmlns:xlink="http://www.w3.org/1999/xlink" viewBox="0 0 4.34 4.33"><defs><style>.cls-1{fill:url(#未命名漸層_12);}</style><linearGradient id="未命名漸層_12" x1="2.17" y1="4.33" x2="2.17" gradientUnits="userSpaceOnUse"><stop offset="0" stop-color="#c9caca"/><stop offset="1" stop-color="#be9461"/></linearGradient></defs><title>資產 17</title><g id="圖層_2" data-name="圖層 2"><g id="圖層_1-2" data-name="圖層 1"><path class="cls-1" d="M.06,4.21a.43.43,0,0,0,.25.12c.09,0,2.13-.12,2.25-.16a5.53,5.53,0,0,0,.82-.62c0-.05.73-.7.77-.77A21.32,21.32,0,0,0,4.33.6c0-.11,0-.29-.09-.34A5,5,0,0,0,3.39,0C3.27,0,1.72.16,1.72.16S.4,1.53.39,1.59a.94.94,0,0,1-.15.26C.2,1.9,0,3.95,0,4A1.84,1.84,0,0,0,.06,4.21Z"/></g></g></svg>