<svg xmlns="http://www.w3.org/2000/svg" xmlns:xlink="http://www.w3.org/1999/xlink" viewBox="0 0 45 24.62"><defs><style>.cls-1{fill:url(#未命名漸層_12);}.cls-2{fill:url(#未命名漸層_12-2);}.cls-3{fill:url(#未命名漸層_12-3);}</style><linearGradient id="未命名漸層_12" x1="42.87" y1="24.62" x2="42.87" y2="20.35" gradientUnits="userSpaceOnUse"><stop offset="0" stop-color="#c9caca"/><stop offset="1" stop-color="#be9461"/></linearGradient><linearGradient id="未命名漸層_12-2" x1="2.17" y1="24.6" x2="2.17" y2="20.27" xlink:href="#未命名漸層_12"/><linearGradient id="未命名漸層_12-3" x1="22.39" y1="24.38" x2="22.39" y2="0" xlink:href="#未命名漸層_12"/></defs><title>資產 4</title><g id="圖層_2" data-name="圖層 2"><g id="圖層_1-2" data-name="圖層 1"><circle class="cls-1" cx="42.87" cy="22.49" r="2.13"/><path class="cls-2" d="M.06,24.48a.43.43,0,0,0,.25.12c.09,0,2.13-.12,2.25-.16a5.53,5.53,0,0,0,.82-.62c0-.05.73-.7.77-.77a21.32,21.32,0,0,0,.18-2.18c0-.11,0-.29-.09-.34a5,5,0,0,0-.86-.25c-.12,0-1.67.16-1.67.16S.4,21.8.39,21.87a.94.94,0,0,1-.15.26c0,.05-.25,2.1-.24,2.16A1.84,1.84,0,0,0,.06,24.48Z"/><path class="cls-3" d="M29.85.88a1.07,1.07,0,0,1,.48-.51A4.21,4.21,0,0,1,31.93.18l.86,0L34,.13,35.33.07,36.47,0a1,1,0,0,1,.07.37V.66q0,.59-.4.69A11.58,11.58,0,0,0,35,1.57a1.86,1.86,0,0,0-.64.27.79.79,0,0,0-.29.38,1.61,1.61,0,0,0-.07.51s0,.51.05,1.39.09,2,.16,3.25.15,2.69.22,4.2.15,2.94.22,4.29.13,2.53.18,3.53.09,1.61.11,1.83a1.69,1.69,0,0,0,.09.6,1,1,0,0,0,.33.42,2,2,0,0,0,.68.31,9.33,9.33,0,0,0,1.13.24q.4.07.4.69a3.26,3.26,0,0,1-.07.62L35.17,24q-1-.05-2.36-.05T30.24,24q-1.37.05-2.28.13a3.21,3.21,0,0,1-.07-.62A.86.86,0,0,1,28,23a.35.35,0,0,1,.24-.15,4.86,4.86,0,0,0,1.94-.6,1.29,1.29,0,0,0,.44-1.08q0-.11-.05-1.17t-.11-2.63q-.05-1.57-.15-3.4t-.18-3.44Q30,8.88,30,7.71t-.09-1.43L22.39,23.72a4.11,4.11,0,0,1-.31.49.42.42,0,0,1-.35.16h-.22a.52.52,0,0,1-.22,0L12.82,4q0,.48-.09,1.92t-.15,3.31q-.09,1.86-.18,3.93T12.23,17q-.07,1.75-.13,2.94t-.05,1.3a1.93,1.93,0,0,0,.07.57.88.88,0,0,0,.29.42,1.83,1.83,0,0,0,.66.31q.44.13,1.21.27.4.07.4.69a2.62,2.62,0,0,1,0,.27c0,.11,0,.23-.05.35L12.78,24q-.84-.05-1.68-.05T9.27,24q-1.1.05-2,.13a.72.72,0,0,1-.07-.33V23.5A.88.88,0,0,1,7.33,23a.5.5,0,0,1,.29-.16,5.39,5.39,0,0,0,1.64-.58,1.28,1.28,0,0,0,.58-1q0-.29.07-1.77T10.11,16q.11-2,.22-4.31t.2-4.24q.09-2,.15-3.27t.05-1.39a1,1,0,0,0-.4-.9,5.08,5.08,0,0,0-1.75-.49q-.4,0-.4-.69V.37A1,1,0,0,1,8.25,0L9.56.07l1.72.05,1.64,0,1.1,0a7.32,7.32,0,0,1,1,.05,3.64,3.64,0,0,1,.58.13.56.56,0,0,1,.31.22l.16.29,6.8,16.41Z"/></g></g></svg>