<?xml version="1.0" encoding="utf-8"?>
<!-- Generator: Adobe Illustrator 22.1.0, SVG Export Plug-In . SVG Version: 6.00 Build 0)  -->
<svg version="1.1" id="圖層_1" xmlns="http://www.w3.org/2000/svg" xmlns:xlink="http://www.w3.org/1999/xlink" x="0px" y="0px"
	 viewBox="0 0 93.2 93.2" style="enable-background:new 0 0 93.2 93.2;" xml:space="preserve">
<style type="text/css">
	.st0{fill:#38BFB7;}
</style>
<g>
	<path class="st0" d="M82.7,46.6l10.4-6l0-0.3c-0.1-0.5-0.2-1.1-0.2-1.6c-0.5-2.9-1.2-5.7-2.3-8.5c-0.2-0.5-0.4-1-0.6-1.5L90,28.5
		H77.9l6-10.4l-0.2-0.2c-0.3-0.4-0.7-0.8-1-1.2c-1.9-2.2-3.9-4.3-6.2-6.2c-0.4-0.3-0.8-0.7-1.2-1l-0.2-0.2l-10.4,6V3.2l-0.3-0.1
		c-0.5-0.2-1-0.4-1.5-0.6c-2.7-1-5.6-1.8-8.5-2.3c-0.5-0.1-1-0.2-1.6-0.2l-0.3,0l-6,10.4L40.6,0l-0.3,0c-0.5,0.1-1.1,0.2-1.6,0.2
		c-2.9,0.5-5.7,1.2-8.5,2.3c-0.6,0.2-1,0.4-1.5,0.6l-0.2,0.1v12.1l-10.4-6l-0.2,0.2c-0.4,0.3-0.8,0.7-1.2,1
		c-2.2,1.9-4.3,3.9-6.2,6.2c-0.3,0.4-0.7,0.8-1,1.2l-0.2,0.2l6,10.4H3.2l-0.1,0.3c-0.2,0.5-0.4,1-0.6,1.5c-1,2.7-1.8,5.6-2.3,8.5
		c-0.1,0.5-0.2,1.1-0.2,1.6l0,0.3l10.4,6l-10.3,6L0,52.6l0,0.3c0.1,0.5,0.1,1,0.2,1.6c0.5,2.9,1.2,5.7,2.3,8.5
		c0.2,0.5,0.4,1,0.6,1.5l0.1,0.2h12.1l-6,10.4l0.2,0.2c0.3,0.4,0.7,0.8,1,1.2c1.8,2.2,3.9,4.3,6.2,6.2c0.4,0.3,0.8,0.7,1.2,1
		l0.2,0.2l10.4-6V90l0.2,0.1c0.5,0.2,1,0.4,1.5,0.6c2.7,1,5.6,1.8,8.5,2.3c0.5,0.1,1.1,0.2,1.6,0.2l0.3,0l6-10.4l6,10.4l0.3,0
		c0.5-0.1,1.1-0.2,1.6-0.2c2.9-0.5,5.7-1.3,8.5-2.3c0.5-0.2,1-0.4,1.5-0.6l0.3-0.1V77.9l10.4,6l0.2-0.2c0.4-0.3,0.8-0.7,1.2-1
		c2.2-1.9,4.3-3.9,6.2-6.2c0.3-0.4,0.7-0.8,1-1.2l0.2-0.2l-6-10.4H90l0.1-0.2c0.2-0.5,0.4-1,0.6-1.5c1-2.7,1.8-5.6,2.3-8.5
		c0.1-0.5,0.2-1.1,0.2-1.6l0-0.3L82.7,46.6z M62.4,76.6v11.8c-2.8,1.1-5.7,1.8-8.6,2.3l-5.9-10.2l5.3-9.2L62.4,76.6z M51.2,70.2
		l-4.6,8l-4.6-8l4.6-2.7L51.2,70.2z M19.2,62.4l4.6-8l4.6,2.7v5.4H19.2z M12.7,47.9l9.2,5.3l-5.3,9.2H4.8c-1-2.8-1.8-5.6-2.3-8.6
		L12.7,47.9z M28.5,30.8v5.4l-4.6,2.7l-4.6-8H28.5z M16.6,30.8l5.3,9.2l-9.2,5.3L2.5,39.4c0.5-2.9,1.2-5.8,2.3-8.6H16.6z M15,46.6
		l8-4.6l2.7,4.6L23,51.2L15,46.6z M28.5,28.5H17.9L12,18.3c1.9-2.3,4-4.4,6.3-6.3l10.2,5.9V28.5z M28.5,64.7v10.6l-10.2,5.9
		c-2.3-1.9-4.4-4-6.3-6.3l5.9-10.2H28.5z M30.8,16.6V4.8c2.8-1,5.6-1.8,8.6-2.3l5.9,10.2L40,21.9L30.8,16.6z M42,23l4.6-8l4.6,8
		l-4.6,2.7L42,23z M30.8,74v-9.3h5.4l2.7,4.6L30.8,74z M52.4,68.2l-5.8-3.3l-5.8,3.3l-3.3-5.8h-6.7v-6.7L25,52.4l3.3-5.8L25,40.8
		l5.8-3.3v-6.7h6.7l3.3-5.8l5.8,3.3l5.8-3.3l3.3,5.8h6.7v6.7l5.8,3.3l-3.3,5.8l3.3,5.8l-5.8,3.3v6.7h-6.7L52.4,68.2z M62.4,19.2v9.3
		H57l-2.7-4.6L62.4,19.2z M62.4,16.6l-9.2,5.3l-5.3-9.2l5.9-10.2c2.9,0.5,5.8,1.2,8.6,2.3V16.6z M30.8,76.6l9.2-5.3l5.3,9.2
		l-5.9,10.2c-2.9-0.5-5.8-1.3-8.6-2.3V76.6z M76.6,62.4l-5.3-9.2l9.2-5.3l10.2,5.9c-0.5,2.9-1.2,5.8-2.3,8.6H76.6z M64.7,62.4V57
		l4.6-2.7l4.6,8H64.7z M78.2,46.6l-8,4.6l-2.7-4.6l2.7-4.6L78.2,46.6z M74,30.8l-4.6,8l-4.6-2.7v-5.4H74z M88.4,30.8
		c1,2.8,1.8,5.6,2.3,8.6l-10.2,5.9L71.3,40l5.3-9.2H88.4z M64.7,28.5V17.9L74.9,12c2.3,1.9,4.4,4,6.3,6.3l-5.9,10.2H64.7z
		 M64.7,64.7h10.6l5.9,10.3c-1.9,2.3-4,4.4-6.3,6.3l-10.2-5.9V64.7z M30.8,28.5v-9.3l8,4.6l-2.7,4.6H30.8z M62.4,64.7V74l-8-4.6
		l2.7-4.6H62.4z"/>
</g>
</svg>
